<svg width="190" height="62" viewBox="0 0 190 62" fill="none" xmlns="http://www.w3.org/2000/svg">
<path d="M40.7851 45.7412C33.4773 45.7412 27.7935 49.1985 27.7935 53.6437C27.7935 58.0888 33.4773 61.5461 40.7851 61.5461C48.0929 61.5461 53.7767 58.0888 53.7767 53.6437C53.7767 49.1985 48.0929 45.7412 40.7851 45.7412ZM117.923 0.795959H111.427V10.4271H135.786L117.923 0.795959ZM1.81031 55.1254H18.0498C18.0498 55.1254 18.8618 40.3083 42.409 40.3083C59.8665 40.3083 62.7084 55.1254 62.7084 55.1254H103.307V0.795959H0.998413L1.81031 55.1254ZM155.273 45.7412C147.966 45.7412 142.282 49.1985 142.282 53.6437C142.282 58.0888 147.966 61.5461 155.273 61.5461C162.581 61.5461 168.265 58.0888 168.265 53.6437C168.265 49.1985 162.175 45.7412 155.273 45.7412ZM139.846 13.1436H111.427V55.1254H135.786C135.786 55.1254 132.538 42.7778 156.085 42.7778C173.949 42.7778 173.543 55.1254 173.543 55.1254H188.564L189.376 36.604L139.846 13.1436ZM135.786 45.2473H119.547V40.3083H135.786V45.2473ZM134.162 36.357L117.923 30.4302V16.6009H134.162L176.385 36.357H134.162Z" fill="white" fill-opacity="0.4"/>
</svg>
